<?xml version="1.0" standalone="no"?>
<!DOCTYPE svg PUBLIC "-//W3C//DTD SVG 20010904//EN"
 "http://www.w3.org/TR/2001/REC-SVG-20010904/DTD/svg10.dtd">
<svg version="1.0" xmlns="http://www.w3.org/2000/svg"
 width="512.000000pt" height="512.000000pt" viewBox="0 0 512.000000 512.000000"
 preserveAspectRatio="xMidYMid meet">
<metadata>
Created by potrace 1.14, written by Peter Selinger 2001-2017
</metadata>
<g transform="translate(0.000000,512.000000) scale(0.100000,-0.100000)"
fill="#000000" stroke="none">
<path d="M2335 4929 c-332 -31 -732 -167 -1024 -348 -204 -126 -443 -337 -596
-526 -341 -421 -535 -965 -535 -1505 0 -540 194 -1084 535 -1505 97 -120 297
-313 416 -402 286 -214 626 -366 984 -439 137 -28 147 -29 460 -29 311 0 323
1 450 28 484 103 865 304 1204 632 359 349 588 769 688 1260 27 136 28 149 28
455 0 306 -1 319 -28 455 -39 189 -114 414 -196 581 -123 253 -244 425 -436
622 -208 215 -394 352 -657 482 -398 197 -846 280 -1293 239z m1442 -1314 c68
-20 128 -80 148 -148 23 -76 23 -1748 0 -1824 -20 -68 -80 -128 -148 -148 -76
-23 -2358 -23 -2434 0 -68 20 -128 80 -148 148 -23 76 -23 1748 0 1824 19 65
80 128 144 147 71 22 2364 23 2438 1z"/>
<path d="M1957 3160 c-63 -16 -112 -47 -161 -101 -111 -124 -98 -315 29 -427
151 -133 393 -79 479 107 32 70 29 189 -6 257 -31 59 -94 119 -153 145 -51 23
-137 31 -188 19z"/>
<path d="M2877 3003 c-12 -11 -8 -118 5 -131 19 -19 721 -17 737 2 7 9 11 38
9 73 l-3 58 -371 3 c-204 1 -373 -1 -377 -5z"/>
<path d="M2881 2696 c-7 -9 -11 -38 -9 -73 l3 -58 375 0 375 0 3 58 c2 35 -2
64 -9 73 -9 12 -73 14 -369 14 -296 0 -360 -2 -369 -14z"/>
<path d="M1703 2386 c-86 -28 -158 -89 -192 -166 -16 -34 -21 -66 -21 -131 0
-80 2 -88 26 -112 14 -15 40 -29 58 -32 17 -3 233 -5 479 -3 l449 3 30 34 c30
33 30 35 26 125 -5 106 -24 152 -88 210 -82 74 -198 102 -298 73 -90 -27 -160
-30 -242 -11 -100 23 -176 26 -227 10z"/>
<path d="M2874 2386 c-3 -7 -4 -40 -2 -72 l3 -59 364 -3 c260 -2 368 1 377 9
17 14 19 110 2 127 -19 19 -737 17 -744 -2z"/>
</g>
</svg>
